<svg xmlns="http://www.w3.org/2000/svg" viewBox="0 0 2574.19 825.87"><defs><style>.cls-1{isolation:isolate;}.cls-15,.cls-2{fill:#9b800d;}.cls-18,.cls-3{fill:#095884;}.cls-19,.cls-4{fill:#a6dde2;}.cls-20,.cls-5{fill:#40adbf;}.cls-14,.cls-6{fill:#f48003;}.cls-12,.cls-7{fill:#6d4b2d;}.cls-13,.cls-8{fill:#edb985;}.cls-16,.cls-9{fill:#f7f363;}.cls-10,.cls-17{fill:#f7d50b;}.cls-11,.cls-21,.cls-23{fill:none;}.cls-11{stroke:#000;}.cls-11,.cls-12,.cls-13,.cls-14,.cls-15,.cls-16,.cls-17,.cls-18,.cls-19,.cls-20,.cls-21,.cls-23{stroke-miterlimit:10;}.cls-12,.cls-13,.cls-14,.cls-15,.cls-16,.cls-17,.cls-18,.cls-19,.cls-20,.cls-21,.cls-23{stroke:#fff;}.cls-12,.cls-13,.cls-14,.cls-15,.cls-16,.cls-17,.cls-18,.cls-19,.cls-20,.cls-23{stroke-width:4px;}.cls-12,.cls-13,.cls-14,.cls-15,.cls-16,.cls-17,.cls-18,.cls-19,.cls-20{mix-blend-mode:multiply;opacity:0.7;}.cls-21{stroke-width:2px;}.cls-22{fill:#fff;mix-blend-mode:lighten;opacity:0.15;}</style></defs><g class="cls-1"><g id="Layer_2" data-name="Layer 2"><g id="LIGHTEN_LAYER" data-name="LIGHTEN LAYER"><polygon class="cls-2" points="2568.18 14.99 2417.68 297.5 2566.68 509.5 2568.18 14.99"/><polygon class="cls-3" points="8.18 811 158.18 527 9.18 315 8.18 811"/><polygon class="cls-3" points="699.18 811 923.18 572 546.18 633 699.18 811"/><polygon class="cls-4" points="433.18 811 545.18 633 158.18 528 433.18 811"/><polygon class="cls-5" points="1110.18 811 1275.18 594 924.18 572 1110.18 811"/><polygon class="cls-4" points="1803.18 811 1932.18 550 1699.18 634 1803.18 811"/><polygon class="cls-4" points="2438.18 811 2567.18 510 2343.18 588 2438.18 811"/><polygon class="cls-5" points="1535.18 811 1699.18 634 1275.18 594 1535.18 811"/><polygon class="cls-5" points="2146.18 811 2343.18 588 1932.18 550 2146.18 811"/><polygon class="cls-6" points="2343.18 588 2417.18 297 1932.18 550 2343.18 588"/><polygon class="cls-7" points="2567.18 510 2417.18 298 2343.18 588 2567.18 510"/><polygon class="cls-8" points="2417.18 297 2030.18 193 1932.18 550 2417.18 297"/><polygon class="cls-7" points="1653.18 253 1301.18 232 1275.18 594 1653.18 253"/><polygon class="cls-7" points="924.18 572 643.18 276 546.18 633 924.18 572"/><polygon class="cls-8" points="1932.18 550 1653.18 253 1699.18 634 1932.18 550"/><polygon class="cls-8" points="1275.18 593 877.18 191 924.18 572 1275.18 593"/><polygon class="cls-8" points="643.18 276 233.18 238 159.18 528 643.18 276"/><polygon class="cls-6" points="1932.18 550 2030.18 193 1653.18 254 1932.18 550"/><polygon class="cls-6" points="1699.18 634 1653.18 254 1275.18 593 1699.18 634"/><polygon class="cls-6" points="1275.18 594 1302.18 232 877.18 191 1275.18 594"/><polygon class="cls-6" points="924.18 572 878.18 191 643.18 276 924.18 572"/><polygon class="cls-6" points="546.18 633 643.18 276 158.18 527 546.18 633"/><polygon class="cls-6" points="159.18 528 233.18 237 9.18 315 159.18 528"/><polygon class="cls-9" points="1877.18 14.99 1653.18 254 2030.18 193 1877.18 14.99"/><polygon class="cls-2" points="1041.18 13.99 877.18 191 1302.18 232 1041.18 13.99"/><polygon class="cls-2" points="431.18 13.99 233.18 237 643.18 276 431.18 13.99"/><polygon class="cls-9" points="773.18 14.99 643.18 276 877.18 191 773.18 14.99"/><polygon class="cls-9" points="138.18 13.99 9.18 315 233.18 237 138.18 13.99"/><polygon class="cls-9" points="1466.18 13.99 1301.18 231 1653.18 254 1466.18 13.99"/><polygon class="cls-9" points="2143.18 13.99 2031.18 192 2418.18 298 2143.18 13.99"/><polygon class="cls-5" points="432.88 810.5 8.18 810.5 158.59 527.5 432.88 810.5"/><polygon class="cls-3" points="2568.18 811 2438.58 810.5 2567.07 509.5 2568.18 811"/><polygon class="cls-3" points="698.95 810.5 433.33 810.5 546.06 632.5 698.95 810.5"/><polygon class="cls-3" points="2438.08 810.5 2145.56 810.5 2342.96 587.5 2438.08 810.5"/><polygon class="cls-4" points="1110.33 810.5 699.1 810.5 923.57 571.5 1110.33 810.5"/><polygon class="cls-3" points="1535 810.5 1110.31 810.5 1275.18 593.5 1535 810.5"/><polygon class="cls-3" points="1803.59 810.5 1535.45 810.5 1698.5 633.5 1803.59 810.5"/><polygon class="cls-3" points="2145.24 810.5 1804.21 810.5 1932.58 549.5 2145.24 810.5"/><polygon class="cls-10" points="2143.49 14.49 2568.18 14.49 2417.78 297.5 2143.49 14.49"/><polygon class="cls-10" points="9.18 14.49 137.78 14.49 9.29 315.5 9.18 14.49"/><polygon class="cls-10" points="1877.41 14.49 2143.03 14.49 2030.31 192.5 1877.41 14.49"/><polygon class="cls-10" points="138.28 14.49 430.8 14.49 233.4 237.5 138.28 14.49"/><polygon class="cls-2" points="1466.04 14.49 1877.26 14.49 1652.8 253.5 1466.04 14.49"/><polygon class="cls-10" points="1041.36 14.49 1466.06 14.49 1301.19 231.5 1041.36 14.49"/><polygon class="cls-10" points="772.77 14.49 1040.91 14.49 877.86 191.5 772.77 14.49"/><polygon class="cls-10" points="431.12 14.49 772.15 14.49 643.78 275.5 431.12 14.49"/><line class="cls-11" x1="9.68" y1="315.49" x2="158.68" y2="527.49"/><polygon class="cls-12" points="233.18 238 328.18 337 158.18 527 233.18 238"/><polygon class="cls-13" points="328.18 337 643.18 276 233.18 238 328.18 337"/><polygon class="cls-14" points="158.18 527 328.18 337 643.18 276 158.18 527"/><polygon class="cls-12" points="2418.18 298 2454.18 475 2343.18 588 2418.18 298"/><polygon class="cls-13" points="2454.18 475 2567.18 510 2418.18 298 2454.18 475"/><polygon class="cls-14" points="2343.18 588 2454.18 475 2567.18 510 2343.18 588"/><polygon class="cls-12" points="2031.18 192 2092.18 333 1933.18 550 2031.18 192"/><polygon class="cls-13" points="2092.18 333 2418.18 297 2031.18 192 2092.18 333"/><polygon class="cls-14" points="1933.18 550 2092.18 333 2418.18 297 1933.18 550"/><polygon class="cls-12" points="1653.18 254 1841.18 316 1933.18 550 1653.18 254"/><polygon class="cls-13" points="1841.18 316 2031.18 192 1653.18 254 1841.18 316"/><polygon class="cls-14" points="1933.18 550 1841.18 316 2031.18 192 1933.18 550"/><polygon class="cls-12" points="1302.18 231 1383.18 337 1275.18 594 1302.18 231"/><polygon class="cls-13" points="1383.18 337 1653.18 254 1302.18 231 1383.18 337"/><polygon class="cls-14" points="1275.18 594 1383.18 337 1653.18 254 1275.18 594"/><polygon class="cls-12" points="877.18 191 1120.18 337 1275.18 594 877.18 191"/><polygon class="cls-13" points="1120.18 337 1302.18 231 877.18 191 1120.18 337"/><polygon class="cls-14" points="1275.18 594 1120.18 337 1302.18 231 1275.18 594"/><polygon class="cls-12" points="643.18 276 809.18 298 924.18 572 643.18 276"/><polygon class="cls-13" points="809.18 298 877.18 191 643.18 276 809.18 298"/><polygon class="cls-14" points="924.18 572 809.18 298 877.18 191 924.18 572"/><polygon class="cls-12" points="2343.18 588 2261.18 475 1933.18 550 2343.18 588"/><polygon class="cls-13" points="2261.18 475 2418.18 298 2343.18 588 2261.18 475"/><polygon class="cls-14" points="1933.18 550 2261.18 475 2418.18 298 1933.18 550"/><polygon class="cls-12" points="1699.18 634 1765.18 460 1653.18 253 1699.18 634"/><polygon class="cls-13" points="1765.18 460 1933.18 550 1699.18 634 1765.18 460"/><polygon class="cls-14" points="1653.18 253 1765.18 460 1933.18 550 1653.18 253"/><polygon class="cls-12" points="1275.18 594 1583.18 412 1653.18 254 1275.18 594"/><polygon class="cls-13" points="1583.18 412 1699.18 634 1275.18 594 1583.18 412"/><polygon class="cls-14" points="1653.18 254 1583.18 412 1699.18 634 1653.18 254"/><polygon class="cls-12" points="924.18 572 980.18 460 877.18 191 924.18 572"/><polygon class="cls-13" points="980.18 460 1275.18 594 924.18 572 980.18 460"/><polygon class="cls-14" points="877.18 191 980.18 460 1275.18 594 877.18 191"/><polygon class="cls-12" points="546.18 633 679.18 444 643.18 275 546.18 633"/><polygon class="cls-13" points="679.18 444 923.18 572 546.18 633 679.18 444"/><polygon class="cls-14" points="643.18 275 679.18 444 923.18 572 643.18 275"/><polygon class="cls-12" points="158.18 528 453.18 460 643.18 275 158.18 528"/><polygon class="cls-13" points="453.18 460 546.18 633 158.18 528 453.18 460"/><polygon class="cls-14" points="643.18 275 453.18 460 546.18 633 643.18 275"/><polygon class="cls-12" points="158.18 527 121.18 371 9.18 316 158.18 527"/><polygon class="cls-13" points="121.18 371 233.18 238 158.18 527 121.18 371"/><polygon class="cls-14" points="9.18 316 121.18 371 233.18 238 9.18 316"/><polygon class="cls-15" points="9.18 13.99 58.18 93 9.18 315 9.18 13.99"/><polygon class="cls-16" points="58.18 93 138.18 13.99 9.18 13.99 58.18 93"/><polygon class="cls-17" points="9.18 315 58.18 93 138.18 13.99 9.18 315"/><polygon class="cls-15" points="772.18 14.99 923.18 46.99 877.18 192 772.18 14.99"/><polygon class="cls-16" points="923.18 46.99 1041.18 14.99 772.18 14.99 923.18 46.99"/><polygon class="cls-17" points="877.18 192 923.18 46.99 1041.18 14.99 877.18 192"/><polygon class="cls-15" points="1041.18 14.99 1275.18 103 1302.18 232 1041.18 14.99"/><polygon class="cls-16" points="1275.18 103 1466.18 14.99 1041.18 14.99 1275.18 103"/><polygon class="cls-17" points="1302.18 232 1275.18 103 1466.18 14.99 1302.18 232"/><polygon class="cls-15" points="1466.18 14.99 1653.18 145 1653.18 245 1466.18 14.99"/><polygon class="cls-16" points="1653.18 145 1877.18 14.99 1466.18 14.99 1653.18 145"/><polygon class="cls-17" points="1653.18 245 1653.18 145 1877.18 14.99 1653.18 245"/><polygon class="cls-15" points="1877.18 14.99 2010.18 68 2031.18 192 1877.18 14.99"/><polygon class="cls-16" points="2010.18 68 2143.18 14.99 1877.18 14.99 2010.18 68"/><polygon class="cls-17" points="2031.18 192 2010.18 68 2143.18 14.99 2031.18 192"/><polygon class="cls-15" points="2143.18 14.99 2292.18 68 2417.18 298 2143.18 14.99"/><polygon class="cls-16" points="2292.18 68 2568.18 14.99 2143.18 14.99 2292.18 68"/><polygon class="cls-17" points="2417.18 298 2292.18 68 2568.18 14.99 2417.18 298"/><polygon class="cls-15" points="431.18 14.99 643.18 104 643.18 276 431.18 14.99"/><polygon class="cls-16" points="643.18 104 773.18 14.99 431.18 14.99 643.18 104"/><polygon class="cls-17" points="643.18 276 643.18 104 773.18 14.99 643.18 276"/><polygon class="cls-15" points="138.18 14.99 243.18 46.99 233.18 237 138.18 14.99"/><polygon class="cls-16" points="243.18 46.99 431.18 14.99 138.18 14.99 243.18 46.99"/><polygon class="cls-17" points="233.18 237 243.18 46.99 431.18 14.99 233.18 237"/><polygon class="cls-15" points="2417.18 298 2515.18 276 2568.18 14.99 2417.18 298"/><polygon class="cls-16" points="2515.18 276 2566.18 510 2417.18 298 2515.18 276"/><polygon class="cls-17" points="2568.18 14.99 2515.18 276 2566.18 510 2568.18 14.99"/><polygon class="cls-15" points="2031.18 192 2174.18 123 2143.18 14.99 2031.18 192"/><polygon class="cls-16" points="2174.18 123 2418.18 298 2031.18 192 2174.18 123"/><polygon class="cls-17" points="2143.18 14.99 2174.18 123 2418.18 298 2143.18 14.99"/><polygon class="cls-15" points="1653.18 253 1841.18 156 1877.18 14.99 1653.18 253"/><polygon class="cls-16" points="1841.18 156 2031.18 192 1653.18 253 1841.18 156"/><polygon class="cls-17" points="1877.18 14.99 1841.18 156 2031.18 192 1877.18 14.99"/><polygon class="cls-15" points="1301.18 231 1453.18 123 1466.18 14.99 1301.18 231"/><polygon class="cls-16" points="1453.18 123 1653.18 253 1301.18 231 1453.18 123"/><polygon class="cls-17" points="1466.18 14.99 1453.18 123 1653.18 253 1466.18 14.99"/><polygon class="cls-15" points="877.18 191 1066.18 123 1041.18 14.99 877.18 191"/><polygon class="cls-16" points="1066.18 123 1301.18 231 877.18 191 1066.18 123"/><polygon class="cls-17" points="1041.18 14.99 1066.18 123 1301.18 231 1041.18 14.99"/><polygon class="cls-15" points="643.18 275 772.18 145 772.18 14.99 643.18 275"/><polygon class="cls-16" points="772.18 145 877.18 191 643.18 275 772.18 145"/><polygon class="cls-17" points="772.18 14.99 772.18 145 877.18 191 772.18 14.99"/><polygon class="cls-15" points="233.18 237 352.18 156 431.18 14.99 233.18 237"/><polygon class="cls-16" points="352.18 156 643.18 275 233.18 237 352.18 156"/><polygon class="cls-17" points="431.18 14.99 352.18 156 643.18 275 431.18 14.99"/><polygon class="cls-15" points="233.18 237 138.18 193 9.18 316 233.18 237"/><polygon class="cls-16" points="138.18 193 138.18 14.99 233.18 237 138.18 193"/><polygon class="cls-17" points="9.18 316 138.18 193 138.18 14.99 9.18 316"/><polygon class="cls-18" points="923.18 571 1099.18 660 1110.18 810 923.18 571"/><polygon class="cls-19" points="1099.18 660 1275.18 593 923.18 571 1099.18 660"/><polygon class="cls-20" points="1110.18 810 1099.18 660 1275.18 593 1110.18 810"/><polygon class="cls-18" points="1275.18 594 1494.18 699 1535.18 810 1275.18 594"/><polygon class="cls-19" points="1494.18 699 1699.18 634 1275.18 594 1494.18 699"/><polygon class="cls-20" points="1535.18 810 1494.18 699 1699.18 634 1535.18 810"/><polygon class="cls-18" points="1933.18 549 1795.18 669 1698.18 633 1933.18 549"/><polygon class="cls-19" points="1795.18 669 1804.18 810 1933.18 549 1795.18 669"/><polygon class="cls-20" points="1698.18 633 1795.18 669 1804.18 810 1698.18 633"/><polygon class="cls-18" points="2342.18 587 2291.18 713 2145.18 810 2342.18 587"/><polygon class="cls-19" points="2291.18 713 2438.18 810 2342.18 587 2291.18 713"/><polygon class="cls-20" points="2145.18 810 2291.18 713 2438.18 810 2145.18 810"/><polygon class="cls-18" points="2438.18 810 2568.18 811 2502.18 761 2438.18 810"/><polygon class="cls-19" points="2568.18 811 2566.18 510 2438.18 810 2568.18 811"/><polygon class="cls-20" points="2502.18 761 2568.18 811 2566.18 510 2502.18 761"/><polygon class="cls-18" points="158.18 527 410.18 669 433.18 810 158.18 527"/><polygon class="cls-19" points="410.18 669 546.18 632 158.18 527 410.18 669"/><polygon class="cls-20" points="433.18 810 410.18 669 546.18 632 433.18 810"/><polygon class="cls-18" points="699.18 810 559.18 732 433.18 810 699.18 810"/><polygon class="cls-19" points="559.18 732 545.18 633 699.18 810 559.18 732"/><polygon class="cls-20" points="433.18 810 559.18 732 545.18 633 433.18 810"/><polygon class="cls-18" points="699.18 810 699.18 669 546.18 633 699.18 810"/><polygon class="cls-19" points="699.18 669 924.18 571 699.18 810 699.18 669"/><polygon class="cls-20" points="546.18 633 699.18 669 924.18 571 546.18 633"/><polygon class="cls-18" points="1110.18 810 894.18 702 699.18 810 1110.18 810"/><polygon class="cls-19" points="894.18 702 924.18 572 1110.18 810 894.18 702"/><polygon class="cls-20" points="699.18 810 894.18 702 924.18 572 699.18 810"/><polygon class="cls-18" points="1535.18 810 1254.18 750 1110.18 810 1535.18 810"/><polygon class="cls-19" points="1254.18 750 1275.18 593 1535.18 810 1254.18 750"/><polygon class="cls-20" points="1110.18 810 1254.18 750 1275.18 593 1110.18 810"/><polygon class="cls-18" points="1803.18 810 1692.18 702 1535.18 810 1803.18 810"/><polygon class="cls-19" points="1692.18 702 1699.18 634 1803.18 810 1692.18 702"/><polygon class="cls-20" points="1535.18 810 1692.18 702 1699.18 634 1535.18 810"/><polygon class="cls-18" points="2145.18 810 1925.18 756 1803.18 810 2145.18 810"/><polygon class="cls-19" points="1925.18 756 1932.18 550 2145.18 810 1925.18 756"/><polygon class="cls-20" points="1803.18 810 1925.18 756 1932.18 550 1803.18 810"/><polygon class="cls-18" points="2145.18 810 2113.18 660 1933.18 549 2145.18 810"/><polygon class="cls-19" points="2113.18 660 2343.18 587 2145.18 810 2113.18 660"/><polygon class="cls-20" points="1933.18 549 2113.18 660 2343.18 587 1933.18 549"/><polygon class="cls-18" points="2438.18 810 2438.18 646 2342.18 587 2438.18 810"/><polygon class="cls-19" points="2438.18 646 2566.18 510 2438.18 810 2438.18 646"/><polygon class="cls-20" points="2342.18 587 2438.18 646 2566.18 510 2342.18 587"/><polygon class="cls-18" points="8.18 810 158.18 732 158.18 528 8.18 810"/><polygon class="cls-19" points="158.18 732 433.18 810 8.18 810 158.18 732"/><polygon class="cls-20" points="158.18 528 158.18 732 433.18 810 158.18 528"/><polygon class="cls-18" points="9.18 315 64.18 593 8.18 810 9.18 315"/><polygon class="cls-19" points="64.18 593 159.18 527 9.18 315 64.18 593"/><polygon class="cls-20" points="8.18 810 64.18 593 159.18 527 8.18 810"/><polygon class="cls-21" points="432.88 810.5 8.18 810.5 158.59 527.5 432.88 810.5"/><polygon class="cls-21" points="2568.18 810.5 2438.58 810.5 2567.07 509.5 2568.18 810.5"/><polygon class="cls-21" points="698.95 810.5 433.33 810.5 546.06 632.5 698.95 810.5"/><polygon class="cls-21" points="2438.08 810.5 2145.56 810.5 2342.96 587.5 2438.08 810.5"/><polygon class="cls-21" points="1110.33 810.5 699.1 810.5 923.57 571.5 1110.33 810.5"/><polygon class="cls-21" points="1535 810.5 1110.31 810.5 1275.18 593.5 1535 810.5"/><polygon class="cls-21" points="1803.59 810.5 1535.45 810.5 1698.5 633.5 1803.59 810.5"/><polygon class="cls-21" points="2145.24 810.5 1804.21 810.5 1932.58 549.5 2145.24 810.5"/><polygon class="cls-21" points="2143.49 14.49 2568.18 14.49 2417.78 297.5 2143.49 14.49"/><polygon class="cls-21" points="8.18 14.49 137.78 14.49 9.29 315.5 8.18 14.49"/><polygon class="cls-21" points="1877.41 14.49 2143.03 14.49 2030.31 192.5 1877.41 14.49"/><polygon class="cls-21" points="138.28 14.49 430.8 14.49 233.4 237.5 138.28 14.49"/><polygon class="cls-21" points="1466.04 14.49 1877.26 14.49 1652.8 253.5 1466.04 14.49"/><polygon class="cls-21" points="1041.36 14.49 1466.06 14.49 1301.19 231.5 1041.36 14.49"/><polygon class="cls-21" points="772.77 14.49 1040.91 14.49 877.86 191.5 772.77 14.49"/><polygon class="cls-21" points="431.12 14.49 772.15 14.49 643.78 275.5 431.12 14.49"/><line class="cls-21" x1="158.68" y1="527.49" x2="545.68" y2="632.49"/><line class="cls-21" x1="923.68" y1="571.49" x2="545.68" y2="632.49"/><line class="cls-21" x1="1274.68" y1="593.49" x2="923.68" y2="571.49"/><line class="cls-21" x1="1698.68" y1="633.49" x2="1274.68" y2="593.49"/><line class="cls-21" x1="1932.68" y1="549.49" x2="1698.68" y2="633.49"/><line class="cls-21" x1="2342.68" y1="587.49" x2="1932.68" y2="549.49"/><line class="cls-21" x1="2566.68" y1="509.49" x2="2342.68" y2="587.49"/><line class="cls-21" x1="9.68" y1="315.49" x2="233.68" y2="237.49"/><line class="cls-21" x1="643.68" y1="275.49" x2="233.68" y2="237.49"/><line class="cls-21" x1="877.68" y1="191.49" x2="643.68" y2="275.49"/><line class="cls-21" x1="1301.68" y1="231.49" x2="877.68" y2="191.49"/><line class="cls-21" x1="1652.68" y1="253.49" x2="1301.68" y2="231.49"/><line class="cls-21" x1="2030.68" y1="192.49" x2="1652.68" y2="253.49"/><line class="cls-21" x1="2417.68" y1="297.49" x2="2030.68" y2="192.49"/><line class="cls-21" x1="9.68" y1="315.49" x2="158.68" y2="527.49"/><line class="cls-21" x1="158.68" y1="527.49" x2="233.68" y2="237.49"/><line class="cls-21" x1="643.68" y1="275.49" x2="545.68" y2="632.49"/><line class="cls-21" x1="923.68" y1="571.49" x2="877.68" y2="191.49"/><line class="cls-21" x1="1274.68" y1="593.49" x2="1301.68" y2="231.49"/><line class="cls-21" x1="877.68" y1="191.49" x2="1274.68" y2="593.49"/><line class="cls-21" x1="643.68" y1="275.49" x2="923.68" y2="571.49"/><line class="cls-21" x1="158.68" y1="527.49" x2="643.68" y2="275.49"/><line class="cls-21" x1="1274.68" y1="593.49" x2="1652.68" y2="253.49"/><line class="cls-21" x1="1652.68" y1="253.49" x2="1698.68" y2="633.49"/><line class="cls-21" x1="1932.68" y1="549.49" x2="1652.68" y2="253.49"/><line class="cls-21" x1="1932.68" y1="549.49" x2="2030.68" y2="192.49"/><line class="cls-21" x1="2417.68" y1="297.49" x2="1932.68" y2="549.49"/><line class="cls-21" x1="2417.68" y1="297.49" x2="2342.68" y2="587.49"/><line class="cls-21" x1="2566.68" y1="509.49" x2="2417.68" y2="297.49"/><rect class="cls-22" x="8.18" y="14.99" width="2560" height="796"/><rect class="cls-23" x="7.68" y="14.99" width="2561" height="796"/></g></g></g></svg>